<svg width="122" height="28" viewBox="0 0 122 28" fill="none" xmlns="http://www.w3.org/2000/svg">
<rect y="18" width="7" height="5.15789" fill="#3BB4F9"/>
<rect y="18" width="7" height="5.15789" fill="black" fill-opacity="0.2"/>
<path d="M21.696 23L18.456 18.32H18.264H14.88V23H10.992V6.2H18.264C19.752 6.2 21.04 6.448 22.128 6.944C23.232 7.44 24.08 8.144 24.672 9.056C25.264 9.968 25.56 11.048 25.56 12.296C25.56 13.544 25.256 14.624 24.648 15.536C24.056 16.432 23.208 17.12 22.104 17.6L25.872 23H21.696ZM21.624 12.296C21.624 11.352 21.32 10.632 20.712 10.136C20.104 9.624 19.216 9.368 18.048 9.368H14.88V15.224H18.048C19.216 15.224 20.104 14.968 20.712 14.456C21.32 13.944 21.624 13.224 21.624 12.296ZM41.6484 19.88V23H28.6404V6.2H41.3364V9.32H32.5044V12.968H40.3044V15.992H32.5044V19.88H41.6484ZM60.15 6.2V23H56.958L48.582 12.8V23H44.742V6.2H47.958L56.31 16.4V6.2H60.15ZM67.6048 9.368H62.2288V6.2H76.8688V9.368H71.4928V23H67.6048V9.368ZM89.181 19.4H81.381L79.893 23H75.909L83.397 6.2H87.237L94.749 23H90.669L89.181 19.4ZM87.957 16.448L85.293 10.016L82.629 16.448H87.957ZM96.492 6.2H100.38V19.832H108.804V23H96.492V6.2Z" fill="black"/>
</svg>
